<svg width="163" height="144" viewBox="0 0 163 144" fill="none" xmlns="http://www.w3.org/2000/svg">
<path d="M158.966 71.0037C158.449 109.031 122.619 142.655 78.9927 142.061C35.3662 141.468 0.463836 106.883 0.981026 68.855C1.49822 30.8275 37.2837 0.480994 80.9102 1.07433C124.537 1.66767 159.484 32.9761 158.966 71.0037Z" fill="black"/>
<path d="M87.9738 81.7572L82.0702 80.3437C78.7582 79.5973 74.297 78.3087 73.8186 76.3024C73.4765 74.8944 75.658 73.8016 78.1178 73.5542L78.0601 77.7981L82.2364 78.7318L82.306 73.6105C83.1737 73.5523 87.2134 73.9228 87.2039 74.6241C87.1972 75.1151 85.0956 75.6831 85.0746 77.2263C85.0536 78.7695 87.7824 79.9643 90.9596 80.0075C94.4981 80.0557 97.5444 79.1148 97.5697 77.2561C97.6217 73.4325 88.5437 71.7656 82.3337 71.5757L82.3472 70.5814C82.415 70.2106 82.499 69.848 82.5953 69.4995C82.925 68.3195 83.8249 67.0929 84.9769 65.963C86.3195 64.6523 87.5035 63.9402 90.6092 62.8795C93.7338 61.8106 99.1039 61.5856 99.1039 61.5856C99.1039 61.5856 93.8967 62.5598 90.4935 64.0948C88.1002 65.1743 86.9814 66.1657 85.8494 67.7633C88.1126 67.8599 93.2921 67.6269 97.3222 66.2132C103.88 63.9155 105.341 60.6797 105.341 60.6797C105.341 60.6797 94.2978 57.7868 87.3251 61.1921C85.6756 61.9977 84.698 62.9466 83.8204 63.8261C82.9377 64.7056 81.3017 67.2054 81.3017 67.2054C81.8899 62.8791 84.6037 61.0228 85.7015 59.1713C87.4215 56.5026 88.1876 53.5827 83.6487 50.069C73.8397 42.4662 54.793 42 54.793 42C54.793 42 55.2493 52.7228 63.1718 57.8028C66.7276 60.0844 71.0935 61.3747 74.7984 62.0984C75.7603 59.08 76.1637 57.8302 75.2009 55.1963C73.6949 51.0847 66.3074 47.5304 66.3074 47.5304C66.3074 47.5304 72.7951 49.4491 76.1005 52.5189C78.2438 54.5095 78.8371 56.5455 78.862 58.4092C78.8854 60.1907 77.8518 64.7888 78.2094 69.0298L78.1793 69.0294L78.1445 71.59C70.0494 72.0064 63.2885 75.1421 63.0856 79.4542C62.8879 83.3806 67.6239 85.6904 77.9189 88.1807C86.6322 90.0882 88.7846 91.1351 88.7622 92.7837C88.7374 94.6077 85.1085 95.8563 82.0045 95.7793L82.0742 90.6581L77.8964 89.8293L77.8163 95.7218C76.6565 95.9516 70.7457 95.0644 70.7548 94.3979C70.76 94.0123 74.593 93.7134 74.6212 91.6438C74.6446 89.9252 71.9924 88.4504 68.3812 88.4013C64.4099 88.3473 61.5004 89.7464 61.4741 91.6753C61.4202 95.6389 71.2896 97.5975 77.7886 97.756L77.7495 100.632L81.9377 100.689L81.9769 97.813C91.2961 97.6941 99.4256 94.7525 99.4929 89.8067C99.5509 85.6335 95.3908 83.507 87.9738 81.7572Z" fill="white"/>
<g style="mix-blend-mode:lighten">
<path d="M45.4261 32L48.3239 14.5455H52.0142L49.6278 28.9574H57.1108L56.5994 32H45.4261ZM62.674 32.2472C61.8445 32.2472 61.1257 32.1023 60.5178 31.8125C59.9155 31.517 59.4723 31.0795 59.1882 30.5C58.9041 29.9205 58.8331 29.2017 58.9751 28.3438C59.1001 27.6165 59.3359 27.0085 59.6825 26.5199C60.0348 26.0256 60.4638 25.6278 60.9695 25.3267C61.4751 25.0256 62.0348 24.7955 62.6484 24.6364C63.2678 24.4773 63.907 24.3693 64.5661 24.3125C65.3274 24.233 65.9467 24.1562 66.424 24.0824C66.907 24.0085 67.2678 23.9034 67.5064 23.767C67.745 23.625 67.8899 23.4148 67.9411 23.1364V23.0852C68.0263 22.5511 67.9268 22.1364 67.6428 21.8409C67.3643 21.5398 66.9183 21.3892 66.3047 21.3892C65.657 21.3892 65.1058 21.5312 64.6513 21.8153C64.2024 22.0994 63.8814 22.4602 63.6882 22.8977L60.3814 22.625C60.6768 21.8295 61.1229 21.142 61.7195 20.5625C62.3217 19.9773 63.0462 19.5284 63.8928 19.2159C64.7393 18.8977 65.6882 18.7386 66.7393 18.7386C67.4666 18.7386 68.1456 18.8239 68.7763 18.9943C69.4126 19.1648 69.9609 19.429 70.4212 19.7869C70.8871 20.1449 71.2223 20.6051 71.4268 21.1676C71.6371 21.7244 71.6797 22.392 71.5547 23.1705L70.0803 32H66.6371L66.9439 30.1847H66.8416C66.5632 30.5938 66.2223 30.9545 65.8189 31.267C65.4155 31.5739 64.9524 31.8153 64.4297 31.9915C63.907 32.1619 63.3217 32.2472 62.674 32.2472ZM64.1314 29.7415C64.6598 29.7415 65.1456 29.6364 65.5888 29.4261C66.0376 29.2102 66.407 28.9205 66.6967 28.5568C66.9922 28.1932 67.1797 27.7812 67.2592 27.321L67.4808 25.9318C67.3672 26.0057 67.2024 26.071 66.9865 26.1278C66.7763 26.1847 66.5462 26.2386 66.2962 26.2898C66.0518 26.3352 65.8047 26.3778 65.5547 26.4176C65.3047 26.4517 65.0803 26.4858 64.8814 26.5199C64.4439 26.5824 64.0518 26.6818 63.7053 26.8182C63.3587 26.9545 63.0774 27.1392 62.8615 27.3722C62.6456 27.5994 62.5121 27.8835 62.4609 28.2244C62.3814 28.7188 62.4979 29.0966 62.8104 29.358C63.1286 29.6136 63.5689 29.7415 64.1314 29.7415ZM82.0419 18.9091L81.5902 21.6364H73.6982L74.1584 18.9091H82.0419ZM76.4595 15.7727H80.0902L78.0618 27.9773C78.005 28.3125 78.0135 28.5739 78.0874 28.7614C78.1612 28.9432 78.2834 29.071 78.4538 29.1449C78.63 29.2187 78.8402 29.2557 79.0845 29.2557C79.255 29.2557 79.4283 29.2415 79.6044 29.2131C79.7805 29.179 79.9141 29.1534 80.005 29.1364L80.1413 31.8381C79.9368 31.9006 79.6612 31.9687 79.3146 32.0426C78.9737 32.1165 78.5703 32.1619 78.1044 32.179C77.218 32.2131 76.468 32.0966 75.8544 31.8295C75.2408 31.5568 74.8004 31.1392 74.5334 30.5767C74.2663 30.0142 74.2095 29.3068 74.3629 28.4545L76.4595 15.7727ZM85.924 32.2472C85.0945 32.2472 84.3757 32.1023 83.7678 31.8125C83.1655 31.517 82.7223 31.0795 82.4382 30.5C82.1541 29.9205 82.0831 29.2017 82.2251 28.3438C82.3501 27.6165 82.5859 27.0085 82.9325 26.5199C83.2848 26.0256 83.7138 25.6278 84.2195 25.3267C84.7251 25.0256 85.2848 24.7955 85.8984 24.6364C86.5178 24.4773 87.157 24.3693 87.8161 24.3125C88.5774 24.233 89.1967 24.1562 89.674 24.0824C90.157 24.0085 90.5178 23.9034 90.7564 23.767C90.995 23.625 91.1399 23.4148 91.1911 23.1364V23.0852C91.2763 22.5511 91.1768 22.1364 90.8928 21.8409C90.6143 21.5398 90.1683 21.3892 89.5547 21.3892C88.907 21.3892 88.3558 21.5312 87.9013 21.8153C87.4524 22.0994 87.1314 22.4602 86.9382 22.8977L83.6314 22.625C83.9268 21.8295 84.3729 21.142 84.9695 20.5625C85.5717 19.9773 86.2962 19.5284 87.1428 19.2159C87.9893 18.8977 88.9382 18.7386 89.9893 18.7386C90.7166 18.7386 91.3956 18.8239 92.0263 18.9943C92.6626 19.1648 93.2109 19.429 93.6712 19.7869C94.1371 20.1449 94.4723 20.6051 94.6768 21.1676C94.8871 21.7244 94.9297 22.392 94.8047 23.1705L93.3303 32H89.8871L90.1939 30.1847H90.0916C89.8132 30.5938 89.4723 30.9545 89.0689 31.267C88.6655 31.5739 88.2024 31.8153 87.6797 31.9915C87.157 32.1619 86.5717 32.2472 85.924 32.2472ZM87.3814 29.7415C87.9098 29.7415 88.3956 29.6364 88.8388 29.4261C89.2876 29.2102 89.657 28.9205 89.9467 28.5568C90.2422 28.1932 90.4297 27.7812 90.5092 27.321L90.7308 25.9318C90.6172 26.0057 90.4524 26.071 90.2365 26.1278C90.0263 26.1847 89.7962 26.2386 89.5462 26.2898C89.3018 26.3352 89.0547 26.3778 88.8047 26.4176C88.5547 26.4517 88.3303 26.4858 88.1314 26.5199C87.6939 26.5824 87.3018 26.6818 86.9553 26.8182C86.6087 26.9545 86.3274 27.1392 86.1115 27.3722C85.8956 27.5994 85.7621 27.8835 85.7109 28.2244C85.6314 28.7188 85.7479 29.0966 86.0604 29.358C86.3786 29.6136 86.8189 29.7415 87.3814 29.7415ZM96.1726 32L98.3544 18.9091H101.806L101.431 21.2188H101.576C101.974 20.4517 102.528 19.8466 103.238 19.4034C103.954 18.9602 104.758 18.7386 105.65 18.7386C106.536 18.7386 107.258 18.9631 107.815 19.4119C108.377 19.8551 108.701 20.4574 108.786 21.2188H108.923C109.309 20.4688 109.891 19.8693 110.67 19.4205C111.448 18.9659 112.317 18.7386 113.278 18.7386C114.488 18.7386 115.414 19.1278 116.056 19.9062C116.698 20.6847 116.9 21.7812 116.661 23.196L115.195 32H111.565L112.928 23.9119C113.036 23.179 112.928 22.6335 112.604 22.2756C112.281 21.9119 111.829 21.7301 111.249 21.7301C110.59 21.7301 110.042 21.9403 109.604 22.3608C109.167 22.7756 108.897 23.3239 108.795 24.0057L107.44 32H103.92L105.3 23.8352C105.397 23.1875 105.292 22.6761 104.985 22.3011C104.684 21.9205 104.232 21.7301 103.63 21.7301C103.232 21.7301 102.854 21.8324 102.496 22.0369C102.144 22.2358 101.846 22.517 101.602 22.8807C101.357 23.2386 101.198 23.6591 101.124 24.142L99.7947 32H96.1726Z" fill="white"/>
<path d="M45.4261 32L44.4396 31.8362L44.2464 33H45.4261V32ZM48.3239 14.5455V13.5455H47.4762L47.3374 14.3817L48.3239 14.5455ZM52.0142 14.5455L53.0008 14.7088L53.1934 13.5455H52.0142V14.5455ZM49.6278 28.9574L48.6413 28.794L48.4486 29.9574H49.6278V28.9574ZM57.1108 28.9574L58.097 29.1231L58.2929 27.9574H57.1108V28.9574ZM56.5994 32V33H57.4454L57.5856 32.1657L56.5994 32ZM46.4126 32.1638L49.3104 14.7092L47.3374 14.3817L44.4396 31.8362L46.4126 32.1638ZM48.3239 15.5455H52.0142V13.5455H48.3239V15.5455ZM51.0276 14.3821L48.6413 28.794L50.6144 29.1207L53.0008 14.7088L51.0276 14.3821ZM49.6278 29.9574H57.1108V27.9574H49.6278V29.9574ZM56.1246 28.7916L55.6133 31.8343L57.5856 32.1657L58.097 29.1231L56.1246 28.7916ZM56.5994 31H45.4261V33H56.5994V31ZM60.5178 31.8125L60.0773 32.7103L60.0875 32.7152L60.5178 31.8125ZM59.1882 30.5L58.2903 30.9402L59.1882 30.5ZM58.9751 28.3438L57.9896 28.1744L57.9886 28.1804L58.9751 28.3438ZM59.6825 26.5199L58.8682 25.9395L58.8669 25.9413L59.6825 26.5199ZM60.9695 25.3267L60.4578 24.4675L60.4578 24.4675L60.9695 25.3267ZM62.6484 24.6364L62.3996 23.6678L62.3975 23.6684L62.6484 24.6364ZM64.5661 24.3125L64.6519 25.3088L64.661 25.308L64.67 25.3071L64.5661 24.3125ZM66.424 24.0824L66.2728 23.0939L66.2711 23.0942L66.424 24.0824ZM67.5064 23.767L68.0025 24.6353L68.0102 24.6309L68.0179 24.6263L67.5064 23.767ZM67.9411 23.1364L68.9246 23.317L68.9411 23.2274V23.1364H67.9411ZM67.9411 23.0852L66.9535 22.9276L66.9411 23.0059V23.0852H67.9411ZM67.6428 21.8409L66.9085 22.5198L66.9151 22.527L66.9219 22.534L67.6428 21.8409ZM64.6513 21.8153L64.1213 20.9673L64.1165 20.9704L64.6513 21.8153ZM63.6882 22.8977L63.606 23.8943L64.3155 23.9529L64.603 23.3017L63.6882 22.8977ZM60.3814 22.625L59.444 22.2768L58.9847 23.5132L60.2992 23.6216L60.3814 22.625ZM61.7195 20.5625L62.4162 21.2798L62.4163 21.2797L61.7195 20.5625ZM63.8928 19.2159L64.2391 20.1541L64.2446 20.152L63.8928 19.2159ZM68.7763 18.9943L68.5154 19.9597L68.5175 19.9603L68.7763 18.9943ZM70.4212 19.7869L69.8072 20.5763L69.8119 20.5799L70.4212 19.7869ZM71.4268 21.1676L70.487 21.5094L70.4913 21.5208L71.4268 21.1676ZM71.5547 23.1705L72.541 23.3352L72.542 23.329L71.5547 23.1705ZM70.0803 32V33H70.9271L71.0666 32.1647L70.0803 32ZM66.6371 32L65.6511 31.8333L65.4539 33H66.6371V32ZM66.9439 30.1847L67.9299 30.3513L68.1271 29.1847H66.9439V30.1847ZM66.8416 30.1847V29.1847H66.3126L66.0149 29.622L66.8416 30.1847ZM65.8189 31.267L66.4243 32.063L66.4313 32.0576L65.8189 31.267ZM64.4297 31.9915L64.7397 32.9423L64.749 32.9391L64.4297 31.9915ZM65.5888 29.4261L66.0174 30.3297L66.0223 30.3273L65.5888 29.4261ZM66.6967 28.5568L65.9206 27.9262L65.9147 27.9336L66.6967 28.5568ZM67.2592 27.321L68.2447 27.4914L68.2467 27.4785L67.2592 27.321ZM67.4808 25.9318L68.4683 26.0893L68.8229 23.8668L66.9358 25.0934L67.4808 25.9318ZM66.9865 26.1278L66.732 25.1607L66.7256 25.1625L66.9865 26.1278ZM66.2962 26.2898L66.4791 27.2729L66.4878 27.2713L66.4966 27.2695L66.2962 26.2898ZM65.5547 26.4176L65.6898 27.4084L65.7008 27.4069L65.7118 27.4052L65.5547 26.4176ZM64.8814 26.5199L65.0228 27.5098L65.0366 27.5079L65.0504 27.5055L64.8814 26.5199ZM63.7053 26.8182L64.0714 27.7487L64.0714 27.7487L63.7053 26.8182ZM62.8615 27.3722L63.5866 28.061L63.5949 28.0519L62.8615 27.3722ZM62.4609 28.2244L63.4483 28.3833L63.4499 28.3728L62.4609 28.2244ZM62.8104 29.358L62.1688 30.125L62.1763 30.1313L62.184 30.1375L62.8104 29.358ZM62.674 31.2472C61.9596 31.2472 61.3941 31.1224 60.948 30.9098L60.0875 32.7152C60.8573 33.0821 61.7293 33.2472 62.674 33.2472V31.2472ZM60.9582 30.9147C60.5465 30.7127 60.2686 30.4321 60.0861 30.0598L58.2903 30.9402C58.676 31.727 59.2845 32.3213 60.0773 32.7103L60.9582 30.9147ZM60.0861 30.0598C59.9207 29.7224 59.8421 29.2298 59.9617 28.5071L57.9886 28.1804C57.8241 29.1736 57.8875 30.1185 58.2903 30.9402L60.0861 30.0598ZM59.9607 28.5131C60.0661 27.8998 60.2558 27.4402 60.4982 27.0984L58.8669 25.9413C58.4161 26.5769 58.1342 27.3331 57.9896 28.1744L59.9607 28.5131ZM60.4969 27.1002C60.7713 26.7152 61.0983 26.4138 61.4811 26.1859L60.4578 24.4675C59.8292 24.8418 59.2983 25.3359 58.8682 25.9395L60.4969 27.1002ZM61.4811 26.1859C61.8995 25.9368 62.3703 25.7415 62.8994 25.6044L62.3975 23.6684C61.6993 23.8494 61.0508 24.1144 60.4578 24.4675L61.4811 26.1859ZM62.8972 25.6049C63.4613 25.46 64.0459 25.361 64.6519 25.3088L64.4802 23.3162C63.768 23.3776 63.0742 23.4945 62.3996 23.6678L62.8972 25.6049ZM64.67 25.3071C65.4395 25.2267 66.0768 25.148 66.5769 25.0706L66.2711 23.0942C65.8166 23.1645 65.2154 23.2392 64.4621 23.3179L64.67 25.3071ZM66.5752 25.0709C67.1002 24.9906 67.6047 24.8626 68.0025 24.6353L67.0103 22.8988C66.9308 22.9442 66.7138 23.0264 66.2728 23.0939L66.5752 25.0709ZM68.0179 24.6263C68.5098 24.3335 68.8225 23.8729 68.9246 23.317L66.9575 22.9557C66.9559 22.9646 66.9549 22.9653 66.957 22.9601C66.9592 22.9546 66.9636 22.9457 66.9706 22.9354C66.9778 22.9251 66.9852 22.9169 66.9913 22.9113C66.9972 22.9058 66.9994 22.9051 66.9949 22.9078L68.0179 24.6263ZM68.9411 23.1364V23.0852H66.9411V23.1364H68.9411ZM68.9286 23.2428C69.046 22.5066 68.9308 21.7377 68.3636 21.1478L66.9219 22.534C66.9356 22.5482 66.9479 22.565 66.958 22.6067C66.97 22.6568 66.9808 22.7571 66.9535 22.9276L68.9286 23.2428ZM68.377 21.1621C67.8323 20.5728 67.0586 20.3892 66.3047 20.3892V22.3892C66.7781 22.3892 66.8964 22.5067 66.9085 22.5198L68.377 21.1621ZM66.3047 20.3892C65.5088 20.3892 64.7651 20.565 64.1213 20.9673L65.1813 22.6633C65.4466 22.4975 65.8051 22.3892 66.3047 22.3892V20.3892ZM64.1165 20.9704C63.5193 21.3483 63.0555 21.855 62.7734 22.4938L64.603 23.3017C64.7073 23.0654 64.8855 22.8505 65.1861 22.6603L64.1165 20.9704ZM63.7704 21.9011L60.4636 21.6284L60.2992 23.6216L63.606 23.8943L63.7704 21.9011ZM61.3188 22.9732C61.5636 22.3142 61.9285 21.7536 62.4162 21.2798L61.0227 19.8452C60.3172 20.5305 59.7901 21.3449 59.444 22.2768L61.3188 22.9732ZM62.4163 21.2797C62.9112 20.7989 63.5136 20.4218 64.239 20.154L63.5465 18.2778C62.5788 18.635 61.7323 19.1557 61.0226 19.8453L62.4163 21.2797ZM64.2446 20.152C64.962 19.8823 65.7892 19.7386 66.7393 19.7386V17.7386C65.5872 17.7386 64.5167 17.9131 63.5409 18.2798L64.2446 20.152ZM66.7393 19.7386C67.3883 19.7386 67.9787 19.8146 68.5154 19.9597L69.0372 18.029C68.3125 17.8331 67.5449 17.7386 66.7393 17.7386V19.7386ZM68.5175 19.9603C69.0416 20.1006 69.4653 20.3103 69.8072 20.5763L71.0351 18.9976C70.4566 18.5476 69.7837 18.2289 69.035 18.0284L68.5175 19.9603ZM69.8119 20.5799C70.124 20.8197 70.3462 21.1221 70.4871 21.5094L72.3666 20.8259C72.0984 20.0881 71.6501 19.4701 71.0304 18.9939L69.8119 20.5799ZM70.4913 21.5208C70.6231 21.8699 70.6734 22.3516 70.5673 23.0119L72.542 23.329C72.686 22.4325 72.6511 21.579 72.3624 20.8144L70.4913 21.5208ZM70.5683 23.0057L69.0939 31.8353L71.0666 32.1647L72.541 23.3352L70.5683 23.0057ZM70.0803 31H66.6371V33H70.0803V31ZM67.6231 32.1667L67.9299 30.3513L65.9579 30.018L65.6511 31.8333L67.6231 32.1667ZM66.9439 29.1847H66.8416V31.1847H66.9439V29.1847ZM66.0149 29.622C65.7974 29.9417 65.5296 30.2262 65.2065 30.4765L66.4313 32.0576C66.915 31.6829 67.3291 31.2458 67.6683 30.7473L66.0149 29.622ZM65.2135 30.4711C64.9039 30.7066 64.5392 30.8993 64.1104 31.0438L64.749 32.9391C65.3656 32.7314 65.9271 32.4411 66.4243 32.063L65.2135 30.4711ZM64.1197 31.0407C63.713 31.1733 63.2347 31.2472 62.674 31.2472V33.2472C63.4088 33.2472 64.1009 33.1505 64.7397 32.9422L64.1197 31.0407ZM64.1314 30.7415C64.7964 30.7415 65.4301 30.6082 66.0174 30.3296L65.1602 28.5226C64.8611 28.6645 64.5232 28.7415 64.1314 28.7415V30.7415ZM66.0223 30.3273C66.5969 30.0509 67.0886 29.6696 67.4788 29.18L65.9147 27.9336C65.7253 28.1713 65.4784 28.3696 65.1553 28.525L66.0223 30.3273ZM67.4728 29.1874C67.876 28.6913 68.1358 28.1209 68.2446 27.4913L66.2738 27.1507C66.2236 27.4416 66.1084 27.6951 65.9206 27.9262L67.4728 29.1874ZM68.2467 27.4785L68.4683 26.0893L66.4933 25.7743L66.2717 27.1635L68.2467 27.4785ZM66.9358 25.0934C66.9486 25.0851 66.9418 25.0914 66.9034 25.1066C66.8664 25.1213 66.8106 25.1401 66.732 25.1608L67.241 27.0949C67.5024 27.0261 67.7837 26.9276 68.0258 26.7703L66.9358 25.0934ZM66.7256 25.1625C66.5384 25.2131 66.3288 25.2624 66.0958 25.3101L66.4966 27.2695C66.7635 27.2149 67.0141 27.1563 67.2474 27.0932L66.7256 25.1625ZM66.1133 25.3066C65.8777 25.3505 65.6391 25.3916 65.3976 25.43L65.7118 27.4052C65.9703 27.3641 66.226 27.32 66.4791 27.2729L66.1133 25.3066ZM65.4196 25.4268C65.1609 25.4621 64.9249 25.4978 64.7124 25.5343L65.0504 27.5055C65.2356 27.4738 65.4485 27.4414 65.6898 27.4084L65.4196 25.4268ZM64.74 25.5299C64.2393 25.6015 63.77 25.7181 63.3391 25.8876L64.0714 27.7487C64.3337 27.6455 64.6484 27.5633 65.0228 27.5098L64.74 25.5299ZM63.3391 25.8876C62.8768 26.0695 62.4622 26.3319 62.1281 26.6924L63.5949 28.0519C63.6926 27.9465 63.8405 27.8396 64.0714 27.7487L63.3391 25.8876ZM62.1365 26.6834C61.7652 27.0743 61.5504 27.5534 61.472 28.0761L63.4499 28.3728C63.4737 28.2136 63.526 28.1246 63.5865 28.0609L62.1365 26.6834ZM61.4736 28.0656C61.353 28.8151 61.5209 29.5831 62.1688 30.125L63.4519 28.5909C63.4421 28.5827 63.441 28.5798 63.4431 28.5828C63.4453 28.5861 63.4454 28.5878 63.4443 28.584C63.4417 28.5755 63.4265 28.5181 63.4482 28.3833L61.4736 28.0656ZM62.184 30.1375C62.7364 30.5814 63.4263 30.7415 64.1314 30.7415V28.7415C63.7115 28.7415 63.5207 28.6459 63.4368 28.5784L62.184 30.1375ZM82.0419 18.9091L83.0285 19.0725L83.2212 17.9091H82.0419V18.9091ZM81.5902 21.6364V22.6364H82.4382L82.5768 21.7998L81.5902 21.6364ZM73.6982 21.6364L72.7121 21.47L72.5153 22.6364H73.6982V21.6364ZM74.1584 18.9091V17.9091H73.313L73.1723 18.7427L74.1584 18.9091ZM76.4595 15.7727V14.7727H75.6113L75.4729 15.6096L76.4595 15.7727ZM80.0902 15.7727L81.0767 15.9367L81.2701 14.7727H80.0902V15.7727ZM78.0618 27.9773L79.0477 28.1444L79.0483 28.1412L78.0618 27.9773ZM78.0874 28.7614L77.1569 29.1279L77.1609 29.1377L78.0874 28.7614ZM78.4538 29.1449L78.0562 30.0625L78.0671 30.0671L78.4538 29.1449ZM79.6044 29.2131L79.7636 30.2003L79.7791 30.1978L79.7944 30.1948L79.6044 29.2131ZM80.005 29.1364L81.0037 29.086L80.946 27.9425L79.8207 28.1535L80.005 29.1364ZM80.1413 31.8381L80.4336 32.7944L81.1794 32.5665L81.1401 31.7877L80.1413 31.8381ZM79.3146 32.0426L79.1062 31.0646L79.1029 31.0653L79.3146 32.0426ZM78.1044 32.179L78.0678 31.1796L78.066 31.1797L78.1044 32.179ZM75.8544 31.8295L75.4483 32.7434L75.4554 32.7465L75.8544 31.8295ZM74.5334 30.5767L75.4367 30.1478L75.4367 30.1478L74.5334 30.5767ZM74.3629 28.4545L75.3471 28.6317L75.3484 28.6247L75.3495 28.6177L74.3629 28.4545ZM81.0553 18.7457L80.6036 21.473L82.5768 21.7998L83.0285 19.0725L81.0553 18.7457ZM81.5902 20.6364H73.6982V22.6364H81.5902V20.6364ZM74.6842 21.8028L75.1444 19.0755L73.1723 18.7427L72.7121 21.47L74.6842 21.8028ZM74.1584 19.9091H82.0419V17.9091H74.1584V19.9091ZM76.4595 16.7727H80.0902V14.7727H76.4595V16.7727ZM79.1037 15.6088L77.0753 27.8133L79.0483 28.1412L81.0767 15.9367L79.1037 15.6088ZM77.0759 27.8102C77.0071 28.2157 76.9849 28.6911 77.1569 29.1279L79.0178 28.3948C79.0332 28.434 79.0266 28.4406 79.025 28.3921C79.0235 28.3447 79.0274 28.2645 79.0477 28.1444L77.0759 27.8102ZM77.1609 29.1377C77.3272 29.5471 77.6308 29.8781 78.0562 30.0624L78.8514 28.2273C78.8824 28.2408 78.9216 28.2653 78.9574 28.3028C78.9924 28.3394 79.0085 28.372 79.0138 28.385L77.1609 29.1377ZM78.0671 30.0671C78.3947 30.2045 78.743 30.2557 79.0845 30.2557V28.2557C78.9374 28.2557 78.8652 28.233 78.8406 28.2227L78.0671 30.0671ZM79.0845 30.2557C79.3107 30.2557 79.5373 30.2368 79.7636 30.2003L79.4452 28.2258C79.3192 28.2461 79.1992 28.2557 79.0845 28.2557V30.2557ZM79.7944 30.1948C79.9701 30.1609 80.1013 30.1357 80.1893 30.1192L79.8207 28.1535C79.7268 28.1711 79.591 28.1971 79.4144 28.2313L79.7944 30.1948ZM79.0062 29.1868L79.1426 31.8885L81.1401 31.7877L81.0037 29.086L79.0062 29.1868ZM79.8491 30.8817C79.6842 30.9321 79.4403 30.9934 79.1062 31.0646L79.5231 33.0207C79.8822 32.9441 80.1894 32.869 80.4336 32.7944L79.8491 30.8817ZM79.1029 31.0653C78.8351 31.1233 78.4931 31.1641 78.0678 31.1796L78.141 33.1783C78.6475 33.1598 79.1123 33.1096 79.5264 33.0199L79.1029 31.0653ZM78.066 31.1797C77.2831 31.2098 76.692 31.1035 76.2534 30.9126L75.4554 32.7465C76.244 33.0897 77.153 33.2163 78.1428 33.1782L78.066 31.1797ZM76.2605 30.9157C75.8468 30.7318 75.593 30.4769 75.4367 30.1478L73.63 31.0056C74.0079 31.8015 74.6348 32.3818 75.4483 32.7434L76.2605 30.9157ZM75.4367 30.1478C75.2881 29.8348 75.2166 29.3566 75.3471 28.6317L73.3787 28.2774C73.2024 29.257 73.2445 30.1936 73.63 31.0056L75.4367 30.1478ZM75.3495 28.6177L77.4461 15.9358L75.4729 15.6096L73.3763 28.2914L75.3495 28.6177ZM83.7678 31.8125L83.3273 32.7103L83.3375 32.7152L83.7678 31.8125ZM82.4382 30.5L81.5403 30.9402L82.4382 30.5ZM82.2251 28.3438L81.2396 28.1744L81.2386 28.1804L82.2251 28.3438ZM82.9325 26.5199L82.1182 25.9395L82.1169 25.9413L82.9325 26.5199ZM84.2195 25.3267L83.7078 24.4675L83.7078 24.4675L84.2195 25.3267ZM85.8984 24.6364L85.6496 23.6678L85.6475 23.6684L85.8984 24.6364ZM87.8161 24.3125L87.9019 25.3088L87.911 25.308L87.92 25.3071L87.8161 24.3125ZM89.674 24.0824L89.5228 23.0939L89.5211 23.0942L89.674 24.0824ZM90.7564 23.767L91.2525 24.6353L91.2602 24.6309L91.2679 24.6263L90.7564 23.767ZM91.1911 23.1364L92.1746 23.317L92.1911 23.2274V23.1364H91.1911ZM91.1911 23.0852L90.2035 22.9276L90.1911 23.0059V23.0852H91.1911ZM90.8928 21.8409L90.1585 22.5198L90.1651 22.527L90.1719 22.534L90.8928 21.8409ZM87.9013 21.8153L87.3713 20.9673L87.3665 20.9704L87.9013 21.8153ZM86.9382 22.8977L86.856 23.8943L87.5655 23.9529L87.853 23.3017L86.9382 22.8977ZM83.6314 22.625L82.694 22.2768L82.2347 23.5132L83.5492 23.6216L83.6314 22.625ZM84.9695 20.5625L85.6662 21.2798L85.6663 21.2797L84.9695 20.5625ZM87.1428 19.2159L87.4891 20.1541L87.4946 20.152L87.1428 19.2159ZM92.0263 18.9943L91.7654 19.9597L91.7675 19.9603L92.0263 18.9943ZM93.6712 19.7869L93.0572 20.5763L93.0619 20.5799L93.6712 19.7869ZM94.6768 21.1676L93.737 21.5094L93.7413 21.5208L94.6768 21.1676ZM94.8047 23.1705L95.791 23.3352L95.792 23.329L94.8047 23.1705ZM93.3303 32V33H94.1771L94.3166 32.1647L93.3303 32ZM89.8871 32L88.9011 31.8333L88.7039 33H89.8871V32ZM90.1939 30.1847L91.1799 30.3513L91.3771 29.1847H90.1939V30.1847ZM90.0916 30.1847V29.1847H89.5626L89.2649 29.622L90.0916 30.1847ZM89.0689 31.267L89.6743 32.063L89.6813 32.0576L89.0689 31.267ZM87.6797 31.9915L87.9897 32.9423L87.999 32.9391L87.6797 31.9915ZM88.8388 29.4261L89.2674 30.3297L89.2723 30.3273L88.8388 29.4261ZM89.9467 28.5568L89.1706 27.9262L89.1647 27.9336L89.9467 28.5568ZM90.5092 27.321L91.4947 27.4914L91.4967 27.4785L90.5092 27.321ZM90.7308 25.9318L91.7183 26.0893L92.0729 23.8668L90.1858 25.0934L90.7308 25.9318ZM90.2365 26.1278L89.982 25.1607L89.9756 25.1625L90.2365 26.1278ZM89.5462 26.2898L89.7291 27.2729L89.7378 27.2713L89.7466 27.2695L89.5462 26.2898ZM88.8047 26.4176L88.9398 27.4084L88.9508 27.4069L88.9618 27.4052L88.8047 26.4176ZM88.1314 26.5199L88.2728 27.5098L88.2866 27.5079L88.3004 27.5055L88.1314 26.5199ZM86.9553 26.8182L87.3214 27.7487L87.3214 27.7487L86.9553 26.8182ZM86.1115 27.3722L86.8366 28.061L86.8449 28.0519L86.1115 27.3722ZM85.7109 28.2244L86.6983 28.3833L86.6999 28.3728L85.7109 28.2244ZM86.0604 29.358L85.4188 30.125L85.4263 30.1313L85.434 30.1375L86.0604 29.358ZM85.924 31.2472C85.2096 31.2472 84.6441 31.1224 84.198 30.9098L83.3375 32.7152C84.1073 33.0821 84.9793 33.2472 85.924 33.2472V31.2472ZM84.2082 30.9147C83.7965 30.7127 83.5186 30.4321 83.3361 30.0598L81.5403 30.9402C81.926 31.727 82.5345 32.3213 83.3273 32.7103L84.2082 30.9147ZM83.3361 30.0598C83.1707 29.7224 83.0921 29.2298 83.2117 28.5071L81.2386 28.1804C81.0741 29.1736 81.1375 30.1185 81.5403 30.9402L83.3361 30.0598ZM83.2107 28.5131C83.3161 27.8998 83.5058 27.4402 83.7482 27.0984L82.1169 25.9413C81.6661 26.5769 81.3842 27.3331 81.2396 28.1744L83.2107 28.5131ZM83.7469 27.1002C84.0213 26.7152 84.3483 26.4138 84.7311 26.1859L83.7078 24.4675C83.0792 24.8418 82.5483 25.3359 82.1182 25.9395L83.7469 27.1002ZM84.7311 26.1859C85.1495 25.9368 85.6203 25.7415 86.1494 25.6044L85.6475 23.6684C84.9493 23.8494 84.3008 24.1144 83.7078 24.4675L84.7311 26.1859ZM86.1472 25.6049C86.7113 25.46 87.2959 25.361 87.9019 25.3088L87.7302 23.3162C87.018 23.3776 86.3242 23.4945 85.6496 23.6678L86.1472 25.6049ZM87.92 25.3071C88.6895 25.2267 89.3268 25.148 89.8269 25.0706L89.5211 23.0942C89.0666 23.1645 88.4654 23.2392 87.7121 23.3179L87.92 25.3071ZM89.8252 25.0709C90.3502 24.9906 90.8547 24.8626 91.2525 24.6353L90.2603 22.8988C90.1808 22.9442 89.9638 23.0264 89.5228 23.0939L89.8252 25.0709ZM91.2679 24.6263C91.7598 24.3335 92.0725 23.8729 92.1746 23.317L90.2075 22.9557C90.2059 22.9646 90.2049 22.9653 90.207 22.9601C90.2092 22.9546 90.2136 22.9457 90.2206 22.9354C90.2278 22.9251 90.2352 22.9169 90.2413 22.9113C90.2472 22.9058 90.2494 22.9051 90.2449 22.9078L91.2679 24.6263ZM92.1911 23.1364V23.0852H90.1911V23.1364H92.1911ZM92.1786 23.2428C92.296 22.5066 92.1808 21.7377 91.6136 21.1478L90.1719 22.534C90.1856 22.5482 90.1979 22.565 90.208 22.6067C90.22 22.6568 90.2308 22.7571 90.2035 22.9276L92.1786 23.2428ZM91.627 21.1621C91.0823 20.5728 90.3086 20.3892 89.5547 20.3892V22.3892C90.0281 22.3892 90.1464 22.5067 90.1585 22.5198L91.627 21.1621ZM89.5547 20.3892C88.7588 20.3892 88.0151 20.565 87.3713 20.9673L88.4313 22.6633C88.6966 22.4975 89.0551 22.3892 89.5547 22.3892V20.3892ZM87.3665 20.9704C86.7693 21.3483 86.3055 21.855 86.0234 22.4938L87.853 23.3017C87.9573 23.0654 88.1355 22.8505 88.4361 22.6603L87.3665 20.9704ZM87.0204 21.9011L83.7136 21.6284L83.5492 23.6216L86.856 23.8943L87.0204 21.9011ZM84.5688 22.9732C84.8136 22.3142 85.1785 21.7536 85.6662 21.2798L84.2727 19.8452C83.5672 20.5305 83.0401 21.3449 82.694 22.2768L84.5688 22.9732ZM85.6663 21.2797C86.1612 20.7989 86.7636 20.4218 87.489 20.154L86.7965 18.2778C85.8288 18.635 84.9823 19.1557 84.2726 19.8453L85.6663 21.2797ZM87.4946 20.152C88.212 19.8823 89.0392 19.7386 89.9893 19.7386V17.7386C88.8372 17.7386 87.7667 17.9131 86.7909 18.2798L87.4946 20.152ZM89.9893 19.7386C90.6383 19.7386 91.2287 19.8146 91.7654 19.9597L92.2872 18.029C91.5625 17.8331 90.7949 17.7386 89.9893 17.7386V19.7386ZM91.7675 19.9603C92.2916 20.1006 92.7153 20.3103 93.0572 20.5763L94.2851 18.9976C93.7066 18.5476 93.0337 18.2289 92.285 18.0284L91.7675 19.9603ZM93.0619 20.5799C93.374 20.8197 93.5962 21.1221 93.7371 21.5094L95.6166 20.8259C95.3484 20.0881 94.9001 19.4701 94.2804 18.9939L93.0619 20.5799ZM93.7413 21.5208C93.8731 21.8699 93.9234 22.3516 93.8173 23.0119L95.792 23.329C95.936 22.4325 95.9011 21.579 95.6124 20.8144L93.7413 21.5208ZM93.8183 23.0057L92.3439 31.8353L94.3166 32.1647L95.791 23.3352L93.8183 23.0057ZM93.3303 31H89.8871V33H93.3303V31ZM90.8731 32.1667L91.1799 30.3513L89.2079 30.018L88.9011 31.8333L90.8731 32.1667ZM90.1939 29.1847H90.0916V31.1847H90.1939V29.1847ZM89.2649 29.622C89.0474 29.9417 88.7796 30.2262 88.4565 30.4765L89.6813 32.0576C90.165 31.6829 90.5791 31.2458 90.9183 30.7473L89.2649 29.622ZM88.4635 30.4711C88.1539 30.7066 87.7892 30.8993 87.3604 31.0438L87.999 32.9391C88.6156 32.7314 89.1771 32.4411 89.6743 32.063L88.4635 30.4711ZM87.3697 31.0407C86.963 31.1733 86.4847 31.2472 85.924 31.2472V33.2472C86.6588 33.2472 87.3509 33.1505 87.9897 32.9422L87.3697 31.0407ZM87.3814 30.7415C88.0464 30.7415 88.6801 30.6082 89.2674 30.3296L88.4102 28.5226C88.1111 28.6645 87.7732 28.7415 87.3814 28.7415V30.7415ZM89.2723 30.3273C89.8469 30.0509 90.3386 29.6696 90.7288 29.18L89.1647 27.9336C88.9753 28.1713 88.7284 28.3696 88.4053 28.525L89.2723 30.3273ZM90.7228 29.1874C91.126 28.6913 91.3858 28.1209 91.4946 27.4913L89.5238 27.1507C89.4736 27.4416 89.3584 27.6951 89.1706 27.9262L90.7228 29.1874ZM91.4967 27.4785L91.7183 26.0893L89.7433 25.7743L89.5217 27.1635L91.4967 27.4785ZM90.1858 25.0934C90.1986 25.0851 90.1918 25.0914 90.1534 25.1066C90.1164 25.1213 90.0606 25.1401 89.982 25.1608L90.491 27.0949C90.7524 27.0261 91.0337 26.9276 91.2758 26.7703L90.1858 25.0934ZM89.9756 25.1625C89.7884 25.2131 89.5788 25.2624 89.3458 25.3101L89.7466 27.2695C90.0135 27.2149 90.2641 27.1563 90.4974 27.0932L89.9756 25.1625ZM89.3633 25.3066C89.1277 25.3505 88.8891 25.3916 88.6476 25.43L88.9618 27.4052C89.2203 27.3641 89.476 27.32 89.7291 27.2729L89.3633 25.3066ZM88.6696 25.4268C88.4109 25.4621 88.1749 25.4978 87.9624 25.5343L88.3004 27.5055C88.4856 27.4738 88.6985 27.4414 88.9398 27.4084L88.6696 25.4268ZM87.99 25.5299C87.4893 25.6015 87.02 25.7181 86.5891 25.8876L87.3214 27.7487C87.5837 27.6455 87.8984 27.5633 88.2728 27.5098L87.99 25.5299ZM86.5891 25.8876C86.1268 26.0695 85.7122 26.3319 85.3781 26.6924L86.8449 28.0519C86.9426 27.9465 87.0905 27.8396 87.3214 27.7487L86.5891 25.8876ZM85.3865 26.6834C85.0152 27.0743 84.8004 27.5534 84.722 28.0761L86.6999 28.3728C86.7237 28.2136 86.776 28.1246 86.8365 28.0609L85.3865 26.6834ZM84.7236 28.0656C84.603 28.8151 84.7709 29.5831 85.4188 30.125L86.7019 28.5909C86.6921 28.5827 86.691 28.5798 86.6931 28.5828C86.6953 28.5861 86.6954 28.5878 86.6943 28.584C86.6917 28.5755 86.6765 28.5181 86.6982 28.3833L84.7236 28.0656ZM85.434 30.1375C85.9864 30.5814 86.6763 30.7415 87.3814 30.7415V28.7415C86.9615 28.7415 86.7707 28.6459 86.6868 28.5784L85.434 30.1375ZM96.1726 32L95.1862 31.8356L94.9921 33H96.1726V32ZM98.3544 18.9091V17.9091H97.5073L97.368 18.7447L98.3544 18.9091ZM101.806 18.9091L102.793 19.0694L102.982 17.9091H101.806V18.9091ZM101.431 21.2188L100.444 21.0585L100.256 22.2188H101.431V21.2188ZM101.576 21.2188V22.2188H102.184L102.464 21.6791L101.576 21.2188ZM103.238 19.4034L102.712 18.5531L102.709 18.555L103.238 19.4034ZM107.815 19.4119L107.187 20.1905L107.196 20.1974L107.815 19.4119ZM108.786 21.2188L107.792 21.33L107.892 22.2188H108.786V21.2188ZM108.923 21.2188V22.2188H109.532L109.812 21.6767L108.923 21.2188ZM110.67 19.4205L111.169 20.2868L111.174 20.284L110.67 19.4205ZM116.056 19.9062L115.285 20.5425L115.285 20.5425L116.056 19.9062ZM116.661 23.196L115.675 23.0297L115.675 23.0318L116.661 23.196ZM115.195 32V33H116.043L116.182 32.1642L115.195 32ZM111.565 32L110.579 31.8337L110.382 33H111.565V32ZM112.928 23.9119L113.914 24.0782L113.916 24.0679L113.918 24.0576L112.928 23.9119ZM112.604 22.2756L111.858 22.9407L111.863 22.9465L112.604 22.2756ZM109.604 22.3608L110.292 23.0865L110.297 23.0818L109.604 22.3608ZM108.795 24.0057L109.781 24.1728L109.782 24.1634L109.784 24.154L108.795 24.0057ZM107.44 32V33H108.284L108.426 32.1671L107.44 32ZM103.92 32L102.934 31.8333L102.736 33H103.92V32ZM105.3 23.8352L106.286 24.002L106.288 23.9924L106.289 23.9827L105.3 23.8352ZM104.985 22.3011L104.201 22.9215L104.206 22.928L104.211 22.9344L104.985 22.3011ZM102.496 22.0369L102.988 22.9078L102.993 22.9052L102.496 22.0369ZM101.602 22.8807L102.428 23.4444L102.432 23.4384L101.602 22.8807ZM101.124 24.142L102.11 24.3089L102.112 24.3011L102.113 24.2932L101.124 24.142ZM99.7947 32V33H100.64L100.781 32.1668L99.7947 32ZM97.159 32.1644L99.3408 19.0735L97.368 18.7447L95.1862 31.8356L97.159 32.1644ZM98.3544 19.9091H101.806V17.9091H98.3544V19.9091ZM100.819 18.7488L100.444 21.0585L102.418 21.379L102.793 19.0694L100.819 18.7488ZM101.431 22.2188H101.576V20.2188H101.431V22.2188ZM102.464 21.6791C102.782 21.0658 103.214 20.5969 103.767 20.2518L102.709 18.555C101.841 19.0962 101.166 19.8376 100.688 20.7584L102.464 21.6791ZM103.764 20.2537C104.313 19.9143 104.932 19.7386 105.65 19.7386V17.7386C104.583 17.7386 103.595 18.0062 102.712 18.5531L103.764 20.2537ZM105.65 19.7386C106.364 19.7386 106.847 19.9166 107.187 20.1905L108.442 18.6334C107.668 18.0096 106.708 17.7386 105.65 17.7386V19.7386ZM107.196 20.1974C107.532 20.4626 107.735 20.8139 107.792 21.33L109.78 21.1075C109.667 20.1009 109.222 19.2476 108.434 18.6264L107.196 20.1974ZM108.786 22.2188H108.923V20.2188H108.786V22.2188ZM109.812 21.6767C110.104 21.1086 110.546 20.6462 111.169 20.2867L110.17 18.5542C109.237 19.0924 108.514 19.8289 108.034 20.7608L109.812 21.6767ZM111.174 20.284C111.789 19.9247 112.483 19.7386 113.278 19.7386V17.7386C112.152 17.7386 111.107 18.0071 110.165 18.5569L111.174 20.284ZM113.278 19.7386C114.255 19.7386 114.871 20.0408 115.285 20.5425L116.828 19.27C115.957 18.2149 114.721 17.7386 113.278 17.7386V19.7386ZM115.285 20.5425C115.675 21.0153 115.887 21.7763 115.675 23.0297L117.647 23.3623C117.913 21.7862 117.722 20.354 116.828 19.27L115.285 20.5425ZM115.675 23.0318L114.209 31.8358L116.182 32.1642L117.648 23.3603L115.675 23.0318ZM115.195 31H111.565V33H115.195V31ZM112.551 32.1663L113.914 24.0782L111.942 23.7457L110.579 31.8337L112.551 32.1663ZM113.918 24.0576C114.046 23.1888 113.958 22.281 113.346 21.6047L111.863 22.9465C111.899 22.986 112.027 23.1692 111.939 23.7662L113.918 24.0576ZM113.351 21.6105C112.801 20.9932 112.055 20.7301 111.249 20.7301V22.7301C111.603 22.7301 111.76 22.8307 111.858 22.9407L113.351 21.6105ZM111.249 20.7301C110.356 20.7301 109.552 21.0241 108.911 21.6398L110.297 23.0818C110.532 22.8566 110.824 22.7301 111.249 22.7301V20.7301ZM108.916 21.6351C108.294 22.225 107.936 22.9881 107.806 23.8573L109.784 24.154C109.858 23.6596 110.04 23.3262 110.292 23.0865L108.916 21.6351ZM107.809 23.8386L106.454 31.8329L108.426 32.1671L109.781 24.1728L107.809 23.8386ZM107.44 31H103.92V33H107.44V31ZM104.906 32.1667L106.286 24.002L104.314 23.6685L102.934 31.8333L104.906 32.1667ZM106.289 23.9827C106.412 23.1585 106.301 22.3302 105.759 21.6679L104.211 22.9344C104.283 23.0221 104.382 23.2165 104.311 23.6877L106.289 23.9827ZM105.769 21.6807C105.233 21.0032 104.457 20.7301 103.63 20.7301V22.7301C104.008 22.7301 104.135 22.8377 104.201 22.9215L105.769 21.6807ZM103.63 20.7301C103.052 20.7301 102.504 20.8811 102 21.1687L102.993 22.9052C103.205 22.7837 103.413 22.7301 103.63 22.7301V20.7301ZM102.005 21.1661C101.506 21.4478 101.095 21.841 100.772 22.323L102.432 23.4384C102.596 23.1931 102.782 23.0238 102.988 22.9078L102.005 21.1661ZM100.776 22.3169C100.437 22.8134 100.229 23.3789 100.136 23.9909L102.113 24.2932C102.167 23.9393 102.278 23.6638 102.428 23.4444L100.776 22.3169ZM100.138 23.9752L98.8088 31.8332L100.781 32.1668L102.11 24.3089L100.138 23.9752ZM99.7947 31H96.1726V33H99.7947V31Z" fill="black"/>
</g>
<g style="mix-blend-mode:lighten">
<mask id="path-5-outside-1_45_15" maskUnits="userSpaceOnUse" x="43" y="106" width="74" height="22" fill="black">
<rect fill="white" x="43" y="106" width="74" height="22"/>
<path d="M45 125.417L48.1164 108L59.6724 108.145L59.1229 111.181L51.257 111.082L50.5231 115.232L57.6219 115.322L57.0725 118.357L49.9736 118.268L48.6901 125.463L45 125.417Z"/>
<path d="M67.5426 120.125L68.8896 112.625L72.52 112.67L70.1742 125.733L66.6886 125.689L67.1105 123.316L66.9741 123.314C66.5611 124.076 65.9654 124.685 65.1869 125.142C64.4083 125.598 63.5277 125.82 62.5448 125.807C61.6698 125.796 60.9338 125.588 60.3365 125.183C59.745 124.778 59.3288 124.207 59.088 123.471C58.8472 122.735 58.8156 121.857 58.9932 120.836L60.4954 112.519L64.1258 112.565L62.751 120.236C62.622 121.007 62.7223 121.619 63.0519 122.072C63.3815 122.525 63.89 122.756 64.5774 122.764C65.0149 122.77 65.4394 122.676 65.851 122.482C66.2683 122.283 66.63 121.986 66.9361 121.592C67.2422 121.198 67.4443 120.709 67.5426 120.125Z"/>
<path d="M78.0817 118.263L76.7255 125.815L73.1036 125.769L75.4495 112.707L78.9009 112.75L78.497 115.055L78.6418 115.057C79.0662 114.295 79.659 113.697 80.4202 113.264C81.187 112.83 82.0562 112.619 83.0277 112.631C83.9367 112.643 84.6927 112.851 85.2956 113.257C85.9042 113.662 86.3289 114.233 86.5697 114.969C86.8162 115.705 86.8478 116.583 86.6645 117.604L85.1623 125.921L81.5319 125.875L82.9152 118.204C83.0559 117.405 82.9615 116.779 82.6319 116.326C82.3081 115.867 81.7797 115.633 81.0468 115.624C80.5582 115.618 80.1081 115.717 79.6964 115.922C79.2847 116.127 78.9371 116.43 78.6537 116.83C78.376 117.224 78.1853 117.702 78.0817 118.263Z"/>
<path d="M92.8103 126.23C91.8104 126.217 90.9529 125.951 90.2378 125.43C89.5284 124.904 89.0266 124.139 88.7323 123.136C88.4438 122.126 88.4309 120.893 88.6935 119.436C88.9623 117.939 89.4268 116.698 90.0869 115.712C90.7472 114.72 91.5235 113.982 92.416 113.499C93.3086 113.01 94.2349 112.772 95.1951 112.784C95.9223 112.793 96.5088 112.926 96.9544 113.181C97.4059 113.431 97.7514 113.742 97.9911 114.115C98.2308 114.481 98.3968 114.841 98.489 115.195L98.5998 115.196L99.7814 108.648L103.403 108.694L100.287 126.11L96.7076 126.065L97.0833 123.973L96.9299 123.972C96.6981 124.332 96.3924 124.689 96.013 125.042C95.6393 125.39 95.1868 125.677 94.6555 125.903C94.1299 126.13 93.5148 126.239 92.8103 126.23ZM94.4487 123.361C95.0282 123.368 95.5529 123.216 96.0228 122.903C96.4927 122.585 96.8904 122.138 97.2158 121.563C97.5412 120.987 97.7713 120.311 97.9061 119.535C98.0465 118.758 98.0578 118.082 97.94 117.506C97.8222 116.931 97.5835 116.485 97.2238 116.168C96.8698 115.851 96.3974 115.689 95.8065 115.681C95.21 115.674 94.6796 115.829 94.2153 116.147C93.7567 116.465 93.3733 116.909 93.065 117.479C92.7624 118.049 92.5438 118.712 92.4093 119.466C92.2748 120.225 92.2578 120.898 92.3584 121.485C92.4591 122.066 92.6835 122.523 93.0316 122.857C93.3798 123.185 93.8522 123.353 94.4487 123.361Z"/>
<path d="M115.814 116.946L112.514 117.11C112.5 116.82 112.424 116.56 112.285 116.331C112.151 116.096 111.952 115.909 111.687 115.77C111.427 115.63 111.098 115.558 110.701 115.553C110.104 115.545 109.571 115.675 109.102 115.942C108.633 116.209 108.364 116.555 108.296 116.98C108.242 117.252 108.31 117.483 108.501 117.673C108.691 117.863 109.079 118.027 109.662 118.165L111.957 118.671C113.181 118.948 114.062 119.393 114.6 120.008C115.143 120.623 115.329 121.421 115.158 122.402C115.005 123.235 114.63 123.961 114.031 124.578C113.432 125.19 112.676 125.663 111.763 125.999C110.85 126.328 109.839 126.486 108.731 126.472C106.953 126.45 105.605 126.069 104.688 125.33C103.771 124.591 103.338 123.6 103.387 122.356L106.935 122.213C106.957 122.748 107.139 123.153 107.482 123.431C107.825 123.702 108.298 123.844 108.9 123.857C109.576 123.877 110.152 123.745 110.627 123.461C111.108 123.172 111.382 122.817 111.45 122.398C111.499 122.103 111.417 121.863 111.203 121.679C110.995 121.494 110.611 121.339 110.05 121.213L107.874 120.734C106.639 120.462 105.755 119.994 105.224 119.328C104.692 118.662 104.518 117.822 104.701 116.807C104.848 115.996 105.195 115.305 105.742 114.732C106.295 114.154 107.002 113.714 107.864 113.412C108.731 113.11 109.707 112.966 110.793 112.98C112.491 113.001 113.765 113.367 114.614 114.076C115.469 114.786 115.869 115.743 115.814 116.946Z"/>
</mask>
<path d="M45 125.417L48.1164 108L59.6724 108.145L59.1229 111.181L51.257 111.082L50.5231 115.232L57.6219 115.322L57.0725 118.357L49.9736 118.268L48.6901 125.463L45 125.417Z" fill="white"/>
<path d="M67.5426 120.125L68.8896 112.625L72.52 112.67L70.1742 125.733L66.6886 125.689L67.1105 123.316L66.9741 123.314C66.5611 124.076 65.9654 124.685 65.1869 125.142C64.4083 125.598 63.5277 125.82 62.5448 125.807C61.6698 125.796 60.9338 125.588 60.3365 125.183C59.745 124.778 59.3288 124.207 59.088 123.471C58.8472 122.735 58.8156 121.857 58.9932 120.836L60.4954 112.519L64.1258 112.565L62.751 120.236C62.622 121.007 62.7223 121.619 63.0519 122.072C63.3815 122.525 63.89 122.756 64.5774 122.764C65.0149 122.77 65.4394 122.676 65.851 122.482C66.2683 122.283 66.63 121.986 66.9361 121.592C67.2422 121.198 67.4443 120.709 67.5426 120.125Z" fill="white"/>
<path d="M78.0817 118.263L76.7255 125.815L73.1036 125.769L75.4495 112.707L78.9009 112.75L78.497 115.055L78.6418 115.057C79.0662 114.295 79.659 113.697 80.4202 113.264C81.187 112.83 82.0562 112.619 83.0277 112.631C83.9367 112.643 84.6927 112.851 85.2956 113.257C85.9042 113.662 86.3289 114.233 86.5697 114.969C86.8162 115.705 86.8478 116.583 86.6645 117.604L85.1623 125.921L81.5319 125.875L82.9152 118.204C83.0559 117.405 82.9615 116.779 82.6319 116.326C82.3081 115.867 81.7797 115.633 81.0468 115.624C80.5582 115.618 80.1081 115.717 79.6964 115.922C79.2847 116.127 78.9371 116.43 78.6537 116.83C78.376 117.224 78.1853 117.702 78.0817 118.263Z" fill="white"/>
<path d="M92.8103 126.23C91.8104 126.217 90.9529 125.951 90.2378 125.43C89.5284 124.904 89.0266 124.139 88.7323 123.136C88.4438 122.126 88.4309 120.893 88.6935 119.436C88.9623 117.939 89.4268 116.698 90.0869 115.712C90.7472 114.72 91.5235 113.982 92.416 113.499C93.3086 113.01 94.2349 112.772 95.1951 112.784C95.9223 112.793 96.5088 112.926 96.9544 113.181C97.4059 113.431 97.7514 113.742 97.9911 114.115C98.2308 114.481 98.3968 114.841 98.489 115.195L98.5998 115.196L99.7814 108.648L103.403 108.694L100.287 126.11L96.7076 126.065L97.0833 123.973L96.9299 123.972C96.6981 124.332 96.3924 124.689 96.013 125.042C95.6393 125.39 95.1868 125.677 94.6555 125.903C94.1299 126.13 93.5148 126.239 92.8103 126.23ZM94.4487 123.361C95.0282 123.368 95.5529 123.216 96.0228 122.903C96.4927 122.585 96.8904 122.138 97.2158 121.563C97.5412 120.987 97.7713 120.311 97.9061 119.535C98.0465 118.758 98.0578 118.082 97.94 117.506C97.8222 116.931 97.5835 116.485 97.2238 116.168C96.8698 115.851 96.3974 115.689 95.8065 115.681C95.21 115.674 94.6796 115.829 94.2153 116.147C93.7567 116.465 93.3733 116.909 93.065 117.479C92.7624 118.049 92.5438 118.712 92.4093 119.466C92.2748 120.225 92.2578 120.898 92.3584 121.485C92.4591 122.066 92.6835 122.523 93.0316 122.857C93.3798 123.185 93.8522 123.353 94.4487 123.361Z" fill="white"/>
<path d="M115.814 116.946L112.514 117.11C112.5 116.82 112.424 116.56 112.285 116.331C112.151 116.096 111.952 115.909 111.687 115.77C111.427 115.63 111.098 115.558 110.701 115.553C110.104 115.545 109.571 115.675 109.102 115.942C108.633 116.209 108.364 116.555 108.296 116.98C108.242 117.252 108.31 117.483 108.501 117.673C108.691 117.863 109.079 118.027 109.662 118.165L111.957 118.671C113.181 118.948 114.062 119.393 114.6 120.008C115.143 120.623 115.329 121.421 115.158 122.402C115.005 123.235 114.63 123.961 114.031 124.578C113.432 125.19 112.676 125.663 111.763 125.999C110.85 126.328 109.839 126.486 108.731 126.472C106.953 126.45 105.605 126.069 104.688 125.33C103.771 124.591 103.338 123.6 103.387 122.356L106.935 122.213C106.957 122.748 107.139 123.153 107.482 123.431C107.825 123.702 108.298 123.844 108.9 123.857C109.576 123.877 110.152 123.745 110.627 123.461C111.108 123.172 111.382 122.817 111.45 122.398C111.499 122.103 111.417 121.863 111.203 121.679C110.995 121.494 110.611 121.339 110.05 121.213L107.874 120.734C106.639 120.462 105.755 119.994 105.224 119.328C104.692 118.662 104.518 117.822 104.701 116.807C104.848 115.996 105.195 115.305 105.742 114.732C106.295 114.154 107.002 113.714 107.864 113.412C108.731 113.11 109.707 112.966 110.793 112.98C112.491 113.001 113.765 113.367 114.614 114.076C115.469 114.786 115.869 115.743 115.814 116.946Z" fill="white"/>
<path d="M45 125.417L48.1164 108L59.6724 108.145L59.1229 111.181L51.257 111.082L50.5231 115.232L57.6219 115.322L57.0725 118.357L49.9736 118.268L48.6901 125.463L45 125.417Z" stroke="black" stroke-width="2" mask="url(#path-5-outside-1_45_15)"/>
<path d="M67.5426 120.125L68.8896 112.625L72.52 112.67L70.1742 125.733L66.6886 125.689L67.1105 123.316L66.9741 123.314C66.5611 124.076 65.9654 124.685 65.1869 125.142C64.4083 125.598 63.5277 125.82 62.5448 125.807C61.6698 125.796 60.9338 125.588 60.3365 125.183C59.745 124.778 59.3288 124.207 59.088 123.471C58.8472 122.735 58.8156 121.857 58.9932 120.836L60.4954 112.519L64.1258 112.565L62.751 120.236C62.622 121.007 62.7223 121.619 63.0519 122.072C63.3815 122.525 63.89 122.756 64.5774 122.764C65.0149 122.77 65.4394 122.676 65.851 122.482C66.2683 122.283 66.63 121.986 66.9361 121.592C67.2422 121.198 67.4443 120.709 67.5426 120.125Z" stroke="black" stroke-width="2" mask="url(#path-5-outside-1_45_15)"/>
<path d="M78.0817 118.263L76.7255 125.815L73.1036 125.769L75.4495 112.707L78.9009 112.75L78.497 115.055L78.6418 115.057C79.0662 114.295 79.659 113.697 80.4202 113.264C81.187 112.83 82.0562 112.619 83.0277 112.631C83.9367 112.643 84.6927 112.851 85.2956 113.257C85.9042 113.662 86.3289 114.233 86.5697 114.969C86.8162 115.705 86.8478 116.583 86.6645 117.604L85.1623 125.921L81.5319 125.875L82.9152 118.204C83.0559 117.405 82.9615 116.779 82.6319 116.326C82.3081 115.867 81.7797 115.633 81.0468 115.624C80.5582 115.618 80.1081 115.717 79.6964 115.922C79.2847 116.127 78.9371 116.43 78.6537 116.83C78.376 117.224 78.1853 117.702 78.0817 118.263Z" stroke="black" stroke-width="2" mask="url(#path-5-outside-1_45_15)"/>
<path d="M92.8103 126.23C91.8104 126.217 90.9529 125.951 90.2378 125.43C89.5284 124.904 89.0266 124.139 88.7323 123.136C88.4438 122.126 88.4309 120.893 88.6935 119.436C88.9623 117.939 89.4268 116.698 90.0869 115.712C90.7472 114.72 91.5235 113.982 92.416 113.499C93.3086 113.01 94.2349 112.772 95.1951 112.784C95.9223 112.793 96.5088 112.926 96.9544 113.181C97.4059 113.431 97.7514 113.742 97.9911 114.115C98.2308 114.481 98.3968 114.841 98.489 115.195L98.5998 115.196L99.7814 108.648L103.403 108.694L100.287 126.11L96.7076 126.065L97.0833 123.973L96.9299 123.972C96.6981 124.332 96.3924 124.689 96.013 125.042C95.6393 125.39 95.1868 125.677 94.6555 125.903C94.1299 126.13 93.5148 126.239 92.8103 126.23ZM94.4487 123.361C95.0282 123.368 95.5529 123.216 96.0228 122.903C96.4927 122.585 96.8904 122.138 97.2158 121.563C97.5412 120.987 97.7713 120.311 97.9061 119.535C98.0465 118.758 98.0578 118.082 97.94 117.506C97.8222 116.931 97.5835 116.485 97.2238 116.168C96.8698 115.851 96.3974 115.689 95.8065 115.681C95.21 115.674 94.6796 115.829 94.2153 116.147C93.7567 116.465 93.3733 116.909 93.065 117.479C92.7624 118.049 92.5438 118.712 92.4093 119.466C92.2748 120.225 92.2578 120.898 92.3584 121.485C92.4591 122.066 92.6835 122.523 93.0316 122.857C93.3798 123.185 93.8522 123.353 94.4487 123.361Z" stroke="black" stroke-width="2" mask="url(#path-5-outside-1_45_15)"/>
<path d="M115.814 116.946L112.514 117.11C112.5 116.82 112.424 116.56 112.285 116.331C112.151 116.096 111.952 115.909 111.687 115.77C111.427 115.63 111.098 115.558 110.701 115.553C110.104 115.545 109.571 115.675 109.102 115.942C108.633 116.209 108.364 116.555 108.296 116.98C108.242 117.252 108.31 117.483 108.501 117.673C108.691 117.863 109.079 118.027 109.662 118.165L111.957 118.671C113.181 118.948 114.062 119.393 114.6 120.008C115.143 120.623 115.329 121.421 115.158 122.402C115.005 123.235 114.63 123.961 114.031 124.578C113.432 125.19 112.676 125.663 111.763 125.999C110.85 126.328 109.839 126.486 108.731 126.472C106.953 126.45 105.605 126.069 104.688 125.33C103.771 124.591 103.338 123.6 103.387 122.356L106.935 122.213C106.957 122.748 107.139 123.153 107.482 123.431C107.825 123.702 108.298 123.844 108.9 123.857C109.576 123.877 110.152 123.745 110.627 123.461C111.108 123.172 111.382 122.817 111.45 122.398C111.499 122.103 111.417 121.863 111.203 121.679C110.995 121.494 110.611 121.339 110.05 121.213L107.874 120.734C106.639 120.462 105.755 119.994 105.224 119.328C104.692 118.662 104.518 117.822 104.701 116.807C104.848 115.996 105.195 115.305 105.742 114.732C106.295 114.154 107.002 113.714 107.864 113.412C108.731 113.11 109.707 112.966 110.793 112.98C112.491 113.001 113.765 113.367 114.614 114.076C115.469 114.786 115.869 115.743 115.814 116.946Z" stroke="black" stroke-width="2" mask="url(#path-5-outside-1_45_15)"/>
</g>
</svg>
